<?xml version="1.0" encoding="UTF-8" standalone="no"?>
<!DOCTYPE svg PUBLIC "-//W3C//DTD SVG 20010904//EN"
              "http://www.w3.org/TR/2001/REC-SVG-20010904/DTD/svg10.dtd">

<svg xmlns="http://www.w3.org/2000/svg"
     width="3in" height="2.15278in"
     viewBox="0 0 216 155">
  <path id="Selection"
        fill="yellow" stroke="white" stroke-width="4"
        d="M 181.82,38.00
           C 182.13,31.96 195.34,23.88 193.00,35.00
             193.00,35.00 184.00,35.00 184.00,35.00
             188.03,40.02 190.66,41.38 197.00,40.00
             193.91,45.20 185.53,46.16 180.00,48.00
             180.00,48.00 185.00,44.00 185.00,44.00
             183.53,42.22 181.69,40.53 181.82,38.00 Z
           M 28.61,102.00
           C 31.94,116.00 56.62,115.05 64.77,106.78
             68.21,103.29 68.09,99.56 67.99,95.00
             67.65,80.01 63.10,67.25 59.89,53.00
             58.33,46.11 57.94,40.55 65.00,37.00
             66.31,39.10 68.95,42.65 69.23,45.00
             69.54,47.60 67.87,49.81 67.35,53.00
             66.91,55.72 67.80,61.02 68.15,64.00
             68.15,64.00 70.17,85.00 70.17,85.00
             71.65,100.31 73.44,119.88 55.00,125.78
             50.67,127.16 46.48,127.05 42.00,127.00
             35.59,126.92 29.65,125.45 25.65,119.96
             19.30,111.24 25.29,91.19 34.00,86.00
             31.79,90.59 27.36,96.76 28.61,102.00 Z
           M 151.07,51.13
           C 144.44,46.30 151.15,38.93 155.58,44.24
             156.89,45.81 156.95,47.09 156.53,49.00
             156.53,49.00 155.00,53.00 155.00,53.00
             153.54,52.43 152.39,52.09 151.07,51.13 Z
           M 189.16,65.00
           C 189.16,65.00 191.83,94.00 191.83,94.00
             191.43,98.65 191.07,105.20 187.00,108.00
             187.00,96.38 185.83,89.33 183.92,78.00
             181.96,66.41 179.26,60.16 187.00,50.00
             188.39,53.49 188.73,60.98 189.16,65.00 Z
           M 159.83,88.99
           C 153.81,92.96 146.88,90.23 145.62,83.00
             144.59,77.08 149.36,62.82 155.02,60.22
             159.47,58.17 162.95,61.49 165.12,65.04
             168.92,71.27 171.28,82.72 170.96,90.00
             170.20,107.34 154.01,110.19 140.00,110.00
             135.40,109.93 133.71,109.78 130.00,106.78
             127.49,104.75 124.67,100.59 121.00,101.90
             116.96,103.34 114.50,109.71 103.00,109.99
             99.29,110.08 95.20,110.25 92.28,107.57
             89.37,104.91 88.97,100.68 88.43,97.00
             88.43,97.00 85.72,73.00 85.72,73.00
             84.56,64.82 80.66,55.69 90.00,51.00
             90.00,51.00 92.83,80.00 92.83,80.00
             93.24,84.20 92.82,89.10 95.14,92.89
             99.50,100.03 110.27,97.79 116.00,94.00
             113.81,93.12 109.27,91.68 108.11,89.59
             106.22,86.16 110.76,74.08 123.00,74.08
             135.94,74.08 142.65,87.81 130.00,95.00
             138.58,99.05 139.67,97.40 148.00,97.04
             151.33,96.89 153.54,97.17 157.00,96.54
             160.02,95.99 164.43,94.88 165.89,91.87
             167.06,89.43 165.77,86.39 165.00,84.00
             163.47,85.67 161.72,87.75 159.83,88.99 Z
           M 156.84,77.40
           C 160.33,75.85 159.30,71.22 153.15,71.66
             147.55,75.48 152.78,79.20 156.84,77.40 Z" />
</svg>
