<?xml version="1.0" encoding="UTF-8" standalone="no"?>
<!DOCTYPE svg PUBLIC "-//W3C//DTD SVG 20010904//EN"
              "http://www.w3.org/TR/2001/REC-SVG-20010904/DTD/svg10.dtd">

<svg xmlns="http://www.w3.org/2000/svg"
     width="2.72883in" height="1.13527in"
     viewBox="0 0 262 109">
  <path id="Selection"
        fill="yellow" stroke="white" stroke-width="3"
        d="M 148.80,24.00
           C 149.82,27.55 147.13,28.32 147.00,36.00
             146.91,41.41 146.38,54.07 145.33,59.00
             144.63,62.30 142.48,67.18 142.55,70.00
             142.61,74.48 147.85,84.96 142.55,90.72
             138.31,95.38 126.09,94.00 120.00,94.00
             120.00,94.00 120.00,82.00 120.00,82.00
             124.71,81.24 134.63,74.33 134.32,69.00
             134.20,67.06 132.23,64.54 131.11,63.00
             129.25,60.42 122.06,50.91 119.83,49.44
             116.31,47.59 114.86,51.16 111.00,49.44
             108.64,48.10 104.36,43.39 103.18,41.00
             100.39,35.37 104.44,29.85 107.00,25.00
             112.49,26.87 115.01,29.87 118.96,34.00
             125.48,40.82 135.24,55.31 139.00,64.00
             143.10,54.34 142.16,48.03 140.84,38.00
             139.42,27.15 135.03,25.85 143.00,16.00
             144.81,17.92 148.08,21.52 148.80,24.00 Z
           M 171.58,64.00
           C 172.96,74.09 175.50,79.15 187.00,77.41
             190.55,76.87 193.54,76.32 197.00,75.28
             202.05,73.77 204.46,72.58 209.00,70.00
             195.83,66.29 200.39,65.29 186.00,68.00
             186.25,65.60 186.38,64.28 187.36,62.00
             193.92,46.88 209.01,57.03 220.00,59.57
             227.42,61.29 229.62,61.00 237.00,61.00
             237.00,61.00 236.00,71.00 236.00,71.00
             226.84,71.00 220.43,70.84 212.00,75.32
             199.25,82.10 194.31,91.34 178.00,90.24
             175.26,90.06 172.59,89.60 170.57,87.57
             167.81,84.80 167.39,80.66 166.87,77.00
             166.87,77.00 164.41,55.00 164.41,55.00
             164.41,55.00 162.30,40.00 162.30,40.00
             162.63,36.22 164.72,33.81 167.00,31.00
             169.93,36.74 170.53,56.34 171.58,64.00 Z
           M 59.00,51.00
           C 59.00,51.00 50.00,46.00 50.00,46.00
             50.00,46.00 48.00,52.00 48.00,52.00
             48.00,52.00 40.00,48.00 40.00,48.00
             40.00,48.00 43.00,40.00 43.00,40.00
             43.00,40.00 52.00,45.00 52.00,45.00
             52.00,45.00 55.00,39.00 55.00,39.00
             62.92,41.74 61.93,44.53 59.00,51.00 Z
           M 82.98,82.36
           C 78.91,85.36 73.80,86.67 69.00,87.99
             57.80,91.06 39.17,93.24 28.00,89.96
             9.75,84.59 9.04,67.16 21.00,57.00
             20.19,59.44 18.59,63.50 18.89,66.00
             19.61,72.02 26.68,75.74 32.00,76.88
             43.22,79.28 58.79,77.18 70.00,74.79
             73.85,73.97 80.79,72.22 83.85,69.87
             89.47,65.56 82.98,63.01 82.83,58.00
             82.77,55.99 85.24,49.29 86.00,47.00
             94.24,55.34 92.39,75.46 82.98,82.36 Z
           M 131.00,82.00
           C 137.24,81.94 140.60,82.34 139.00,75.00
             139.00,75.00 131.00,82.00 131.00,82.00 Z" />
</svg>
