<?xml version="1.0" encoding="UTF-8" standalone="no"?>
<!DOCTYPE svg PUBLIC "-//W3C//DTD SVG 20010904//EN"
              "http://www.w3.org/TR/2001/REC-SVG-20010904/DTD/svg10.dtd">

<svg xmlns="http://www.w3.org/2000/svg"
     width="3.625in" height="2.19444in"
     viewBox="0 0 261 158">
  <path id="Selection"
        fill="yellow" stroke="white" stroke-width="3"
        d="M 86.00,36.00
           C 79.96,30.51 79.97,30.17 84.00,23.00
             90.63,27.27 92.70,30.07 86.00,36.00 Z
           M 94.96,73.68
           C 92.73,74.80 90.40,74.83 88.02,74.30
             80.66,72.66 80.35,66.23 81.67,60.00
             83.36,52.00 90.73,33.58 100.30,47.04
             105.30,54.07 106.01,67.60 106.00,76.00
             105.98,89.15 100.66,92.34 89.00,97.19
             74.07,103.40 63.85,104.19 48.00,104.00
             43.70,103.94 39.91,103.41 36.00,101.44
             22.77,94.80 23.94,76.80 34.00,68.00
             33.06,70.72 31.09,75.25 31.33,78.00
             31.89,84.37 39.60,87.78 45.00,89.10
             56.74,91.97 78.99,88.65 90.00,83.69
             99.65,79.34 105.62,76.29 102.00,65.00
             100.13,68.22 98.45,71.93 94.96,73.68 Z
           M 90.04,61.75
           C 94.88,61.98 98.20,57.07 91.00,54.91
             83.79,55.76 85.38,61.53 90.04,61.75 Z
           M 189.92,75.00
           C 196.32,61.67 210.86,70.56 221.00,73.11
             228.90,75.09 231.07,75.00 239.00,75.00
             239.00,75.00 237.83,82.57 237.83,82.57
             237.83,82.57 218.00,87.47 218.00,87.47
             218.00,87.47 193.00,102.53 193.00,102.53
             193.00,102.53 178.00,104.00 178.00,104.00
             176.69,120.06 167.55,143.83 147.00,134.02
             144.08,132.62 142.24,131.29 140.00,129.00
             153.63,129.00 156.84,128.27 166.99,118.00
             168.93,116.03 173.23,111.81 173.48,109.00
             173.79,105.50 167.93,100.44 167.24,96.00
             166.69,92.47 170.27,88.09 172.00,85.00
             172.00,85.00 174.00,85.00 174.00,85.00
             176.04,87.76 177.63,89.85 181.00,91.11
             188.31,93.82 204.45,87.71 211.00,84.00
             199.38,79.39 199.81,79.78 188.00,82.00
             188.40,79.43 188.77,77.39 189.92,75.00 Z
           M 123.19,87.00
           C 123.66,80.99 128.90,67.02 136.96,69.64
             143.16,71.66 144.93,82.42 145.00,88.00
             145.00,88.00 145.00,96.00 145.00,96.00
             144.91,114.12 135.13,137.42 113.00,131.25
             109.47,130.27 106.07,129.00 103.00,127.00
             106.65,127.00 110.46,127.22 114.00,126.21
             122.63,123.76 135.04,112.85 139.00,105.00
             140.88,101.28 141.65,97.11 142.00,93.00
             133.07,100.23 122.17,99.86 123.19,87.00 Z
           M 136.58,82.60
           C 130.59,77.49 123.00,86.59 131.06,87.88
             131.06,87.88 134.00,87.88 134.00,87.88
             135.74,87.80 137.32,87.41 139.00,87.00
             138.37,85.22 138.13,83.92 136.58,82.60 Z" />
</svg>
