<?xml version="1.0" encoding="UTF-8" standalone="no"?>
<!DOCTYPE svg PUBLIC "-//W3C//DTD SVG 20010904//EN"
              "http://www.w3.org/TR/2001/REC-SVG-20010904/DTD/svg10.dtd">

<svg xmlns="http://www.w3.org/2000/svg"
     width="3.05556in" height="2.22222in"
     viewBox="0 0 220 160">
  <path id="Selection"
        fill="yellow" stroke="white" stroke-width="3"
        d="M 172.54,40.00
           C 172.28,35.99 177.24,31.21 181.00,30.81
             182.53,30.37 183.57,30.74 185.00,30.81
             185.00,30.81 184.00,37.00 184.00,37.00
             184.00,37.00 175.00,36.00 175.00,36.00
             179.15,41.46 181.32,42.56 188.00,41.00
             184.35,46.41 176.93,47.27 171.00,49.00
             171.00,49.00 175.00,45.00 175.00,45.00
             173.86,43.37 172.67,42.14 172.54,40.00 Z
           M 85.42,62.00
           C 85.42,62.00 87.84,84.00 87.84,84.00
             88.56,90.80 88.68,96.99 97.00,98.66
             100.55,99.37 104.45,98.47 108.00,98.00
             106.38,88.96 106.40,80.25 113.21,73.11
             115.08,71.15 117.25,69.60 120.00,69.27
             125.21,68.64 128.07,72.84 132.00,73.52
             137.19,74.41 141.28,68.59 144.00,65.00
             148.38,71.60 148.03,74.16 157.00,75.00
             152.34,61.95 154.41,67.80 155.00,55.00
             166.09,64.49 161.69,87.87 148.01,85.76
             144.24,85.18 142.43,82.64 140.00,80.00
             137.38,85.48 132.31,89.94 126.00,86.82
             122.06,84.88 114.94,75.76 111.28,84.11
             109.97,87.09 112.05,89.86 114.11,91.86
             119.77,97.35 125.84,94.83 130.77,99.42
             134.59,102.98 133.53,111.24 129.36,113.99
             125.17,116.77 117.44,110.16 113.00,109.70
             109.70,109.38 94.95,113.89 88.21,109.70
             83.64,106.84 83.42,99.81 82.85,95.00
             82.85,95.00 80.57,75.00 80.57,75.00
             79.04,64.63 75.77,61.08 83.00,52.00
             85.46,55.80 84.84,57.67 85.42,62.00 Z
           M 179.00,52.00
           C 179.00,52.00 181.91,82.00 181.91,82.00
             181.91,82.00 181.91,97.00 181.91,97.00
             181.94,101.50 181.99,106.26 178.00,109.00
             177.99,99.41 176.33,89.46 174.75,80.00
             172.67,67.49 169.64,63.42 177.00,52.00
             177.00,52.00 179.00,52.00 179.00,52.00 Z
           M 52.00,80.70
           C 61.32,77.60 62.08,85.35 59.00,92.00
             56.52,90.41 53.15,87.52 50.05,88.52
             42.94,90.80 47.95,97.63 52.00,99.93
             58.39,103.39 63.55,101.45 70.00,99.93
             69.12,102.45 68.46,104.68 66.58,106.61
             63.49,109.80 44.14,117.22 39.00,119.00
             40.31,112.87 42.46,111.98 47.00,108.00
             30.27,100.30 43.80,83.42 52.00,80.70 Z" />
</svg>
