<?xml version="1.0" encoding="UTF-8" standalone="no"?>
<!DOCTYPE svg PUBLIC "-//W3C//DTD SVG 20010904//EN"
              "http://www.w3.org/TR/2001/REC-SVG-20010904/DTD/svg10.dtd">

<svg xmlns="http://www.w3.org/2000/svg"
     width="3.63592in" height="1.37519in"
     viewBox="0 0 349 132">
  <path id="Selection"
        fill="yellow" stroke="white" stroke-width="3"
        d="M 141.42,39.00
           C 142.87,49.77 147.25,73.50 140.00,82.00
             140.00,82.00 136.92,56.00 136.92,56.00
             134.81,43.49 130.63,35.99 139.00,25.00
             141.20,29.77 140.75,33.96 141.42,39.00 Z
           M 283.39,26.11
           C 285.63,24.92 288.86,26.33 291.00,27.23
             298.22,30.28 301.59,33.91 299.21,42.00
             298.72,43.69 297.84,45.94 296.35,47.01
             294.72,48.18 291.07,48.04 289.00,48.28
             289.00,48.28 269.00,51.00 269.00,51.00
             271.66,53.36 273.85,54.21 277.00,55.76
             290.21,62.24 292.85,60.64 306.00,63.00
             302.57,71.63 303.07,72.86 296.00,73.00
             288.57,73.13 284.42,72.88 277.00,75.22
             277.00,75.22 260.00,82.90 260.00,82.90
             256.64,84.02 247.72,84.92 244.00,85.00
             243.30,93.61 240.19,105.65 233.82,111.79
             226.72,118.63 212.12,117.53 207.00,109.00
             218.31,110.99 226.25,106.27 233.83,97.99
             235.57,96.08 239.43,91.60 239.57,89.00
             239.74,85.49 234.64,81.52 233.75,77.00
             232.94,72.85 236.80,68.30 239.00,65.00
             240.85,67.04 242.56,69.25 245.04,70.55
             251.67,74.02 265.68,70.22 272.00,67.00
             272.00,67.00 254.00,60.00 254.00,60.00
             259.22,48.54 270.56,45.08 282.00,42.00
             282.00,42.00 277.00,38.00 277.00,38.00
             277.87,34.95 280.54,27.63 283.39,26.11 Z
           M 94.00,39.00
           C 94.00,39.00 90.00,45.00 90.00,45.00
             90.00,45.00 81.00,41.00 81.00,41.00
             77.81,49.56 71.66,43.00 71.82,39.96
             71.96,37.34 74.19,35.56 76.00,34.00
             76.00,34.00 83.00,39.00 83.00,39.00
             83.00,39.00 86.00,33.00 86.00,33.00
             90.43,34.52 91.18,35.29 94.00,39.00 Z
           M 113.96,76.87
           C 110.42,79.25 103.24,81.28 99.00,82.37
             86.24,85.64 71.90,87.63 59.00,84.07
             41.79,79.33 39.38,62.36 52.00,51.00
             51.16,54.16 49.51,57.74 50.17,61.00
             51.40,67.04 57.62,69.79 63.00,71.10
             72.96,73.53 89.89,71.25 100.00,69.20
             104.78,68.23 111.98,66.61 115.76,63.45
             120.65,59.36 114.22,57.72 113.76,52.96
             113.54,50.72 116.29,44.02 117.00,41.00
             125.32,49.34 123.82,70.23 113.96,76.87 Z
           M 196.00,78.34
           C 185.50,76.23 188.78,61.31 192.97,55.02
             195.11,51.80 198.83,48.46 202.96,50.27
             210.54,53.59 211.08,67.96 211.00,75.00
             210.77,94.38 200.66,118.99 177.00,111.00
             173.55,109.83 171.90,109.24 169.00,106.84
             172.59,107.21 175.43,107.62 179.00,106.84
             189.05,104.07 202.54,91.79 205.89,82.00
             207.03,78.69 206.97,76.41 207.00,73.00
             203.93,75.85 200.63,79.27 196.00,78.34 Z
           M 169.73,103.00
           C 164.07,112.11 156.32,116.46 146.00,112.12
             142.78,110.77 140.90,109.96 139.00,107.00
             142.96,107.14 146.12,107.43 150.00,106.21
             157.87,103.74 171.03,92.97 170.80,84.00
             170.64,77.84 164.96,75.26 162.85,70.00
             161.10,65.61 163.34,59.65 164.00,55.00
             176.44,66.19 178.42,89.02 169.73,103.00 Z
           M 201.78,62.60
           C 194.02,56.78 188.59,70.02 200.00,68.49
             201.74,68.25 203.36,67.60 205.00,67.00
             204.05,65.29 203.43,63.84 201.78,62.60 Z
           M 279.00,94.00
           C 279.00,94.00 275.00,100.00 275.00,100.00
             268.11,96.25 268.01,94.75 271.00,88.00
             275.52,89.33 276.23,90.26 279.00,94.00 Z" />
</svg>
