<?xml version="1.0" encoding="UTF-8" standalone="no"?>
<!DOCTYPE svg PUBLIC "-//W3C//DTD SVG 20010904//EN"
              "http://www.w3.org/TR/2001/REC-SVG-20010904/DTD/svg10.dtd">

<svg xmlns="http://www.w3.org/2000/svg"
     width="3.63592in" height="1.37519in"
     viewBox="0 0 349 132">
  <path id="Selection"
        fill="yellow" stroke="white" stroke-width="3"
        d="M 121.84,58.00
           C 122.25,61.83 122.07,65.62 124.56,68.89
             125.74,70.45 127.18,71.55 129.00,72.26
             131.97,73.41 142.29,73.65 144.09,70.49
             145.47,68.07 142.49,65.97 142.24,62.00
             141.97,57.78 144.48,53.19 147.00,50.00
             150.61,59.41 154.54,76.29 143.91,82.91
             141.22,84.59 135.20,85.72 132.00,85.91
             127.75,86.15 122.69,85.49 120.01,81.78
             117.29,78.02 117.27,71.48 116.72,67.00
             115.96,60.88 112.42,37.20 113.27,33.00
             113.90,29.94 115.21,28.42 117.00,26.00
             120.22,30.98 121.09,51.01 121.84,58.00 Z
           M 73.00,38.00
           C 70.32,47.06 67.51,46.10 61.00,41.00
             61.00,41.00 58.00,48.00 58.00,48.00
             58.00,48.00 50.00,43.00 50.00,43.00
             50.00,43.00 54.00,35.00 54.00,35.00
             60.62,38.38 61.59,40.36 66.00,33.00
             66.00,33.00 73.00,38.00 73.00,38.00 Z
           M 92.98,78.03
           C 88.98,80.70 82.69,82.46 78.00,83.63
             65.71,86.68 49.17,88.72 37.00,84.64
             20.16,79.00 20.31,61.20 32.00,52.00
             30.90,54.62 29.09,58.15 29.33,61.00
             30.11,70.27 43.59,72.91 51.00,73.00
             61.31,73.12 84.39,71.22 92.98,65.92
             100.13,61.50 94.04,58.56 93.50,54.00
             93.14,51.06 95.77,44.79 97.00,42.00
             104.49,51.47 103.30,71.19 92.98,78.03 Z
           M 293.00,51.00
           C 293.00,51.00 289.00,57.00 289.00,57.00
             289.00,57.00 282.00,53.00 282.00,53.00
             282.00,53.00 285.00,45.00 285.00,45.00
             285.00,45.00 293.00,51.00 293.00,51.00 Z
           M 224.82,72.39
           C 227.79,71.23 230.84,65.67 232.72,63.00
             236.85,57.13 243.11,49.58 250.00,46.99
             257.09,44.33 265.70,49.74 265.72,57.00
             265.75,64.47 260.88,70.01 256.00,75.00
             256.00,75.00 279.00,71.85 279.00,71.85
             279.00,71.85 289.00,65.00 289.00,65.00
             291.14,71.11 296.58,74.56 303.00,72.11
             312.54,68.47 312.06,53.56 319.18,50.76
             323.06,49.23 326.51,51.96 328.47,55.09
             333.22,62.68 335.01,81.54 322.00,79.66
             318.48,79.15 313.43,76.47 310.00,75.00
             304.09,87.96 290.43,89.93 286.00,77.00
             286.00,77.00 284.00,77.00 284.00,77.00
             280.34,84.67 274.91,85.90 267.00,86.14
             267.00,86.14 251.00,86.14 251.00,86.14
             244.58,85.92 233.02,83.19 227.22,86.14
             224.87,87.75 223.88,90.72 222.00,93.00
             222.00,93.00 222.00,86.00 222.00,86.00
             212.67,85.91 211.57,85.34 206.00,78.00
             201.68,85.65 196.08,85.93 188.00,86.00
             187.30,94.28 183.67,104.76 177.68,110.67
             169.41,118.82 155.56,117.08 148.00,109.00
             166.75,111.42 175.68,101.54 184.00,86.00
             180.35,85.97 173.31,85.78 170.51,83.27
             164.59,77.94 171.09,61.94 175.53,57.23
             179.84,52.65 184.73,53.12 187.24,59.02
             188.01,60.83 188.57,63.07 188.99,65.00
             189.67,68.16 189.85,69.79 190.00,73.00
             199.98,73.00 204.13,73.31 211.00,65.00
             214.31,69.04 218.53,74.84 224.82,72.39 Z
           M 253.00,58.89
           C 245.28,57.11 236.00,66.41 232.00,72.00
             241.63,71.99 253.27,70.64 260.00,63.00
             257.79,61.24 255.85,59.55 253.00,58.89 Z
           M 324.15,64.13
           C 319.11,56.90 310.76,63.54 318.06,67.43
             318.06,67.43 321.00,68.47 321.00,68.47
             322.66,68.88 324.31,68.92 326.00,69.00
             325.53,67.20 325.26,65.72 324.15,64.13 Z
           M 173.00,68.00
           C 175.45,74.36 180.11,73.00 186.00,73.00
             182.95,66.76 179.35,65.20 173.00,68.00 Z
           M 140.00,96.00
           C 140.00,96.00 136.00,104.00 136.00,104.00
             128.43,99.51 129.29,98.12 133.00,91.00
             133.00,91.00 140.00,96.00 140.00,96.00 Z" />
</svg>
