<?xml version="1.0" encoding="UTF-8" standalone="no"?>
<!DOCTYPE svg PUBLIC "-//W3C//DTD SVG 20010904//EN"
              "http://www.w3.org/TR/2001/REC-SVG-20010904/DTD/svg10.dtd">

<svg xmlns="http://www.w3.org/2000/svg"
     width="4.875in" height="1.83333in"
     viewBox="0 0 351 132">
  <path id="Selection"
        fill="yellow" stroke="white" stroke-width="3"
        d="M 242.00,21.00
           C 242.00,21.00 238.00,29.00 238.00,29.00
             238.00,29.00 230.00,24.00 230.00,24.00
             230.00,24.00 234.00,16.00 234.00,16.00
             234.00,16.00 242.00,21.00 242.00,21.00 Z
           M 126.09,59.00
           C 126.64,66.36 128.53,72.26 137.00,72.88
             140.77,73.16 144.37,71.82 148.00,71.00
             145.54,68.38 142.70,65.79 142.32,62.00
             141.49,53.67 154.06,37.90 163.00,39.43
             168.54,40.39 172.09,45.12 174.00,50.00
             168.10,49.54 159.35,48.93 154.06,52.14
             145.89,57.09 157.51,63.87 162.00,64.52
             167.47,65.31 176.53,60.55 182.00,59.00
             181.48,61.88 180.96,66.48 179.26,68.79
             176.90,72.01 170.69,74.13 167.00,75.72
             156.99,80.04 147.08,85.02 136.00,85.82
             131.45,86.15 126.50,85.08 123.93,80.94
             121.78,77.46 121.29,69.20 120.84,65.00
             120.84,65.00 118.25,45.00 118.25,45.00
             117.67,41.50 116.52,36.40 117.43,33.00
             118.25,29.96 119.99,28.27 122.00,26.00
             124.05,31.01 125.60,52.44 126.09,59.00 Z
           M 74.00,46.00
           C 74.00,46.00 65.00,41.00 65.00,41.00
             65.00,41.00 62.00,48.00 62.00,48.00
             54.94,43.46 54.30,42.41 58.00,35.00
             58.00,35.00 67.00,40.00 67.00,40.00
             67.00,40.00 70.00,34.00 70.00,34.00
             77.81,37.10 77.02,39.31 74.00,46.00 Z
           M 242.90,64.83
           C 237.89,67.56 231.02,65.82 229.43,60.00
             227.72,53.73 232.49,37.88 239.02,35.61
             243.65,34.00 246.99,37.32 249.10,41.02
             253.06,47.96 254.03,56.16 254.00,64.00
             253.98,67.53 254.00,70.72 252.43,74.00
             247.10,85.12 228.78,86.00 218.00,86.00
             215.68,102.47 204.90,123.06 185.00,114.10
             181.86,112.68 180.32,111.48 178.00,109.00
             196.91,111.44 205.26,101.16 214.00,86.00
             210.49,85.97 204.20,85.75 201.23,83.84
             193.72,79.03 200.71,62.02 205.47,57.23
             209.74,52.91 214.54,53.37 217.20,59.02
             217.88,60.47 218.38,62.43 218.71,64.00
             218.71,64.00 220.00,73.00 220.00,73.00
             227.77,73.00 234.28,73.12 242.00,71.54
             244.83,70.96 248.52,69.89 249.65,66.89
             250.36,65.02 249.32,61.10 249.00,59.00
             247.13,60.79 245.04,63.66 242.90,64.83 Z
           M 105.47,50.00
           C 107.18,57.43 105.40,72.30 98.89,77.04
             94.94,79.91 87.77,82.15 83.00,83.37
             71.37,86.35 53.51,88.78 42.00,84.90
             24.71,79.07 24.13,62.08 36.00,52.00
             35.14,55.07 33.09,58.95 33.75,62.00
             35.00,67.75 40.89,70.46 46.00,71.84
             56.01,74.55 72.79,72.45 83.00,70.40
             87.56,69.48 95.22,67.93 98.84,65.03
             103.68,61.15 98.21,58.64 97.75,54.00
             97.52,51.65 100.29,44.10 101.00,41.00
             103.22,43.80 104.66,46.48 105.47,50.00 Z
           M 240.94,47.74
           C 231.53,42.32 231.95,57.42 240.94,52.81
             242.45,52.01 242.91,51.20 244.00,50.00
             244.00,50.00 240.94,47.74 240.94,47.74 Z
           M 286.04,71.26
           C 288.18,72.65 290.48,73.07 293.00,72.80
             302.35,71.80 303.53,62.81 307.12,56.02
             309.10,52.27 312.37,48.75 316.96,51.04
             324.47,54.78 328.91,74.09 319.90,78.97
             315.37,81.43 307.15,77.15 303.00,75.00
             301.07,79.23 299.47,82.30 295.00,84.35
             291.95,85.75 287.92,85.54 286.01,88.31
             284.99,89.78 283.57,99.23 280.02,106.00
             274.89,115.75 267.60,119.65 257.00,116.22
             253.28,115.01 250.09,113.32 248.00,110.00
             260.66,111.66 266.15,108.17 274.96,99.00
             276.54,97.35 281.03,92.57 281.44,90.42
             281.98,87.57 276.67,82.15 275.47,79.00
             273.59,74.06 277.84,69.39 281.00,66.00
             282.51,67.95 283.93,69.90 286.04,71.26 Z
           M 307.00,66.00
           C 307.00,66.00 319.00,69.00 319.00,69.00
             316.40,60.23 309.06,56.91 307.00,66.00 Z
           M 212.86,68.51
           C 205.83,62.82 199.37,71.14 208.02,72.92
             208.02,72.92 212.00,72.92 212.00,72.92
             212.00,72.92 216.00,72.92 216.00,72.92
             215.02,71.00 214.71,70.01 212.86,68.51 Z" />
</svg>
