<?xml version="1.0" encoding="UTF-8" standalone="no"?>
<!DOCTYPE svg PUBLIC "-//W3C//DTD SVG 20010904//EN"
              "http://www.w3.org/TR/2001/REC-SVG-20010904/DTD/svg10.dtd">

<svg xmlns="http://www.w3.org/2000/svg"
     width="3.64634in" height="1.90652in"
     viewBox="0 0 350 183">
  <path id="Selection"
        fill="yellow" stroke="white" stroke-width="2"
        d="M 197.00,62.39
           C 192.53,63.42 188.40,66.99 189.47,72.00
             190.83,78.33 199.77,81.49 205.00,83.86
             214.48,88.17 222.06,93.73 222.79,105.00
             224.01,123.92 206.51,132.48 190.00,130.83
             182.15,130.05 169.11,127.04 172.31,116.15
             173.24,113.01 175.48,113.46 178.00,114.37
             185.20,116.94 192.13,121.25 200.00,117.43
             204.18,115.40 207.96,110.81 205.79,106.00
             202.94,99.70 195.69,97.39 190.00,94.68
             180.63,90.21 174.35,84.91 173.52,74.00
             172.21,56.88 186.83,49.03 202.00,50.09
             206.07,50.37 214.49,51.77 216.83,55.39
             218.42,57.87 218.00,63.96 218.00,67.00
             210.55,65.60 205.09,60.54 197.00,62.39 Z
           M 268.00,130.96
           C 252.33,131.46 238.73,123.58 234.30,108.00
             229.03,89.47 232.47,62.45 252.00,53.52
             260.32,49.71 269.22,49.28 278.00,51.51
             281.18,52.32 286.25,54.28 287.99,57.21
             289.86,60.41 288.96,66.60 287.99,70.00
             282.49,67.35 277.29,63.53 271.00,63.10
             241.97,61.08 240.46,119.99 271.00,117.90
             277.96,117.43 282.58,113.53 289.00,112.00
             292.66,127.11 280.55,130.56 268.00,130.96 Z
           M 49.00,100.00
           C 49.00,100.00 48.04,110.00 48.04,110.00
             48.04,110.00 48.04,123.00 48.04,123.00
             47.97,124.59 48.07,126.95 47.01,128.26
             45.10,130.62 36.90,130.62 34.99,128.26
             33.75,126.72 34.00,122.94 34.00,121.00
             34.00,121.00 34.00,63.00 34.00,63.00
             34.01,54.48 34.36,51.25 44.00,51.01
             48.37,50.91 54.22,51.08 57.89,53.72
             61.78,56.52 64.06,64.44 65.66,69.00
             65.66,69.00 74.00,92.00 74.00,92.00
             75.76,97.05 77.29,103.10 81.00,107.00
             81.00,107.00 93.58,72.00 93.58,72.00
             95.01,68.19 98.46,57.81 100.65,55.14
             104.38,50.60 119.25,48.90 123.40,53.51
             125.32,55.64 124.99,59.31 125.00,62.00
             125.00,62.00 125.00,121.00 125.00,121.00
             125.00,122.94 125.25,126.72 124.01,128.26
             122.10,130.62 113.90,130.62 111.99,128.26
             110.75,126.72 111.00,122.94 111.00,121.00
             111.00,121.00 111.00,84.00 111.00,84.00
             111.00,77.62 111.70,68.97 110.00,63.00
             110.00,63.00 91.81,115.00 91.81,115.00
             87.57,126.17 88.40,129.53 81.00,129.96
             69.07,130.64 69.49,122.38 66.33,113.00
             66.33,113.00 49.00,64.00 49.00,64.00
             49.00,64.00 49.00,100.00 49.00,100.00 Z
           M 159.00,61.00
           C 159.00,61.00 159.00,120.00 159.00,120.00
             159.00,122.16 159.22,125.76 157.98,127.57
             155.70,130.88 146.30,130.88 144.02,127.57
             142.78,125.76 143.00,122.16 143.00,120.00
             143.00,120.00 143.00,70.00 143.00,70.00
             143.00,64.40 141.04,55.28 146.15,51.74
             155.89,49.23 158.98,51.40 159.00,61.00 Z
           M 316.26,114.56
           C 319.38,117.96 318.92,128.03 313.89,129.57
             311.28,130.37 305.62,130.31 303.51,128.40
             300.06,125.29 299.00,115.85 307.02,112.58
             310.07,112.16 313.96,112.04 316.26,114.56 Z" />
</svg>
