<?xml version="1.0" encoding="UTF-8" standalone="no"?>
<!DOCTYPE svg PUBLIC "-//W3C//DTD SVG 20010904//EN"
              "http://www.w3.org/TR/2001/REC-SVG-20010904/DTD/svg10.dtd">

<svg xmlns="http://www.w3.org/2000/svg"
     width="2.417in" height="1.23976in"
     viewBox="0 0 232 119">
  <path id="Selection"
        fill="yellow" stroke="white" stroke-width="3"
        d="M 173.00,23.91
           C 170.56,25.33 164.10,26.99 161.00,28.00
             161.00,28.00 136.00,37.00 136.00,37.00
             142.73,45.88 159.52,49.12 157.80,66.00
             156.66,77.25 147.65,77.27 139.00,78.42
             134.62,79.01 129.24,79.64 125.18,77.43
             122.34,75.88 121.38,73.74 120.00,71.00
             118.11,72.98 116.29,75.05 113.91,76.44
             111.98,77.58 109.23,78.43 107.00,78.66
             94.58,79.95 94.63,68.95 93.92,60.00
             93.92,60.00 92.72,49.00 92.72,49.00
             91.43,38.98 86.95,31.98 96.00,25.00
             96.00,25.00 97.91,45.00 97.91,45.00
             98.17,48.57 98.79,59.12 100.01,61.96
             102.41,67.56 108.70,69.09 114.00,66.72
             117.27,65.26 120.12,62.22 123.00,60.00
             126.38,69.68 136.50,68.75 145.00,67.41
             147.41,67.03 152.78,66.48 153.66,63.73
             154.44,61.29 151.66,59.05 149.98,57.79
             144.72,53.83 136.89,52.27 134.74,46.96
             133.95,45.00 134.00,42.11 134.00,40.00
             134.02,30.64 137.17,29.68 145.00,25.75
             152.51,21.99 160.05,18.47 168.00,15.69
             168.00,15.69 180.00,12.00 180.00,12.00
             180.88,17.01 177.17,21.49 173.00,23.91 Z
           M 55.00,36.00
           C 55.00,36.00 50.00,43.00 50.00,43.00
             45.42,39.97 44.70,39.86 41.00,44.00
             41.00,44.00 34.00,40.00 34.00,40.00
             37.45,32.71 38.93,34.17 45.00,38.00
             45.00,38.00 48.00,32.00 48.00,32.00
             48.00,32.00 55.00,36.00 55.00,36.00 Z
           M 72.96,71.65
           C 61.30,79.00 36.16,81.91 23.00,77.96
             8.03,73.46 6.20,59.11 17.00,49.00
             13.28,60.48 17.17,65.15 29.00,67.38
             38.17,69.11 52.88,67.28 62.00,65.12
             65.54,64.28 70.98,63.06 73.67,60.87
             78.96,56.95 73.98,54.43 73.67,50.00
             73.24,47.68 75.37,41.77 76.00,39.00
             82.79,47.58 83.08,65.27 72.96,71.65 Z
           M 189.09,66.15
           C 202.99,75.10 205.46,49.86 213.02,47.66
             216.49,46.64 219.29,49.32 221.00,52.02
             225.02,58.36 226.65,74.60 215.00,73.09
             211.38,72.62 207.39,70.46 204.00,69.00
             201.29,76.95 196.85,78.63 189.00,79.00
             187.09,93.13 180.85,114.04 162.00,106.52
             159.04,105.34 157.32,104.11 155.00,102.00
             166.06,101.99 170.91,100.21 178.91,91.96
             180.82,90.00 184.61,85.82 184.72,83.00
             184.92,77.48 175.27,73.76 181.80,65.11
             182.87,63.70 183.70,63.10 185.00,62.00
             186.35,63.65 187.24,64.95 189.09,66.15 Z
           M 216.30,58.43
           C 211.02,52.72 203.88,61.24 214.00,63.80
             215.64,63.99 217.33,63.96 219.00,63.80
             218.32,62.11 217.70,59.94 216.30,58.43 Z
           M 126.00,89.00
           C 126.00,89.00 123.00,95.00 123.00,95.00
             123.00,95.00 116.00,92.00 116.00,92.00
             116.00,92.00 119.00,85.00 119.00,85.00
             119.00,85.00 126.00,89.00 126.00,89.00 Z" />
</svg>
