<?xml version="1.0" encoding="UTF-8" standalone="no"?>
<!DOCTYPE svg PUBLIC "-//W3C//DTD SVG 20010904//EN"
              "http://www.w3.org/TR/2001/REC-SVG-20010904/DTD/svg10.dtd">

<svg xmlns="http://www.w3.org/2000/svg"
     width="3.07335in" height="1.98986in"
     viewBox="0 0 295 191">
  <path id="Selection"
        fill="yellow" stroke="white" stroke-width="3"
        d="M 295.00,0.00

           M 218.19,24.74
           C 221.53,22.28 225.39,23.03 226.38,27.06
             227.84,31.39 225.50,35.17 226.38,39.00
             227.06,43.75 228.45,42.19 227.00,48.00
             225.32,47.29 223.02,46.03 221.17,46.51
             216.96,47.62 210.71,60.04 202.00,55.00
             208.13,51.55 213.81,47.73 218.19,42.00
             210.68,37.84 213.91,28.24 218.19,24.74 Z
           M 222.79,33.06
           C 220.54,26.29 213.66,30.77 219.24,35.28
             220.53,36.32 221.54,36.49 222.79,37.00
             222.92,35.68 222.95,34.34 222.79,33.06 Z
           M 90.00,48.00
           C 90.01,55.81 92.44,85.48 94.76,92.00
             96.37,96.51 99.28,100.03 104.00,101.43
             108.93,102.90 115.10,100.97 116.69,107.02
             119.36,117.25 109.60,122.81 101.04,118.31
             94.21,114.73 92.84,106.47 90.00,100.00
             90.00,113.69 93.07,128.87 90.53,142.00
             85.18,169.71 47.94,173.50 36.65,157.96
             30.69,149.76 33.03,136.88 36.08,128.00
             37.91,122.66 39.92,115.95 45.00,113.00
             41.81,120.51 35.72,132.07 40.89,139.96
             48.70,151.86 80.39,149.21 86.35,136.00
             88.86,130.42 86.08,113.64 85.28,107.00
             85.28,107.00 82.00,58.00 82.00,58.00
             81.85,45.22 79.68,41.64 88.00,30.00
             90.40,35.61 89.99,42.01 90.00,48.00 Z
           M 128.42,56.33
           C 131.58,52.80 148.21,43.51 153.00,42.00
             152.28,44.05 152.12,44.95 150.58,46.67
             147.70,49.88 130.62,59.00 126.00,61.00
             126.72,58.94 126.88,58.05 128.42,56.33 Z
           M 193.83,82.00
           C 202.29,60.47 222.67,74.90 238.00,78.34
             247.23,80.40 251.82,80.00 261.00,80.00
             261.00,80.00 259.00,93.00 259.00,93.00
             247.24,93.26 235.47,94.57 225.00,100.31
             217.14,104.63 210.35,112.34 202.00,115.00
             201.22,107.66 199.22,106.62 194.00,102.00
             204.85,101.11 213.21,97.21 223.00,93.00
             211.46,87.02 204.47,86.39 192.00,90.00
             192.30,86.69 192.60,85.13 193.83,82.00 Z
           M 132.67,89.00
           C 134.83,85.77 137.60,80.49 142.01,80.37
             145.96,80.26 149.08,84.17 151.25,87.00
             155.32,92.31 159.23,99.20 166.00,101.35
             170.27,102.71 179.07,101.48 181.11,106.15
             184.03,112.83 178.73,119.23 172.00,119.78
             166.45,120.23 162.51,117.71 158.00,115.00
             157.81,116.81 157.74,118.24 156.99,119.96
             155.78,122.76 154.01,124.25 150.98,124.77
             142.25,126.28 136.72,118.09 131.00,113.09
             128.49,110.90 128.13,110.72 125.00,110.00
             125.00,110.00 118.00,102.00 118.00,102.00
             126.36,98.80 127.84,96.21 132.67,89.00 Z
           M 147.03,92.02
           C 146.35,89.73 144.90,86.71 142.00,87.03
             138.57,87.40 134.29,94.79 135.29,97.99
             136.57,102.05 143.20,105.74 147.03,107.00
             149.10,102.24 148.60,96.97 147.03,92.02 Z
           M 190.57,104.02
           C 194.86,106.97 192.97,113.99 190.00,117.00
             189.98,109.38 190.09,108.86 185.00,103.00
             186.83,103.06 188.98,102.93 190.57,104.02 Z
           M 231.00,137.00
           C 220.98,132.48 220.40,129.63 226.00,121.00
             237.45,124.80 235.59,128.32 231.00,137.00 Z
           M 295.00,191.00

           M 14.00,191.00" />
</svg>
