<?xml version="1.0" encoding="UTF-8" standalone="no"?>
<!DOCTYPE svg PUBLIC "-//W3C//DTD SVG 20010904//EN"
              "http://www.w3.org/TR/2001/REC-SVG-20010904/DTD/svg10.dtd">

<svg xmlns="http://www.w3.org/2000/svg"
     width="3.28171in" height="1.12516in"
     viewBox="0 0 315 108">
  <path id="Selection"
        fill="yellow" stroke="white" stroke-width="3"
        d="M 225.42,26.00
           C 225.42,26.00 229.21,57.00 229.21,57.00
             231.23,66.49 233.96,72.74 245.00,71.91
             248.14,71.67 250.07,70.95 253.00,70.00
             250.55,67.65 247.89,65.54 247.31,61.99
             245.91,53.32 258.67,36.97 268.00,38.65
             273.98,39.72 277.53,44.97 280.00,50.00
             273.78,48.89 263.54,47.94 258.16,52.00
             251.83,56.79 263.00,63.43 268.00,63.72
             272.88,64.02 282.01,59.73 287.00,58.00
             286.52,61.55 285.95,66.71 283.35,69.35
             281.33,71.41 273.97,74.14 271.00,75.42
             261.48,79.55 240.47,90.32 231.34,81.61
             227.66,78.10 226.73,72.79 225.92,68.00
             225.92,68.00 222.00,39.00 222.00,39.00
             219.73,51.60 217.38,76.04 207.91,84.79
             204.38,88.04 200.55,89.26 196.00,90.35
             192.18,91.25 188.76,92.38 185.00,91.00
             192.14,86.98 201.45,79.43 206.48,73.00
             208.24,70.76 211.01,66.97 210.72,64.00
             210.13,57.84 198.21,48.75 193.00,46.00
             190.25,52.83 182.93,48.54 179.30,44.67
             176.02,41.18 175.68,32.28 177.60,28.18
             180.06,22.92 188.24,29.63 191.00,31.64
             203.47,40.75 208.16,46.49 213.00,61.00
             216.51,54.12 218.38,43.73 218.91,36.00
             219.23,31.33 218.58,27.73 219.94,23.00
             220.89,19.70 222.18,17.83 224.00,15.00
             225.40,18.54 224.92,22.21 225.42,26.00 Z
           M 127.62,62.00
           C 129.11,69.68 134.09,73.71 142.00,71.43
             150.08,69.10 150.59,60.13 154.36,54.04
             156.53,50.55 159.81,48.13 163.96,50.19
             171.36,53.87 175.28,72.89 167.61,77.83
             162.61,81.04 154.41,76.50 150.00,74.00
             142.99,89.37 128.70,86.14 125.09,80.79
             122.69,77.24 122.30,69.31 121.84,65.00
             121.84,65.00 119.56,46.00 119.56,46.00
             118.88,41.74 117.27,36.27 118.43,32.00
             119.26,28.94 120.98,27.28 123.00,25.00
             126.26,32.96 125.79,52.57 127.62,62.00 Z
           M 78.00,37.00
           C 78.00,37.00 75.00,45.00 75.00,45.00
             75.00,45.00 66.00,41.00 66.00,41.00
             66.00,41.00 63.00,47.00 63.00,47.00
             63.00,47.00 55.00,42.00 55.00,42.00
             55.00,42.00 59.00,34.00 59.00,34.00
             59.00,34.00 67.00,40.00 67.00,40.00
             67.00,40.00 71.00,33.00 71.00,33.00
             71.00,33.00 78.00,37.00 78.00,37.00 Z
           M 98.96,76.87
           C 88.58,83.91 67.41,86.14 55.00,86.00
             48.10,85.92 39.45,84.26 34.10,79.61
             24.98,71.68 28.76,57.98 37.00,51.00
             36.04,54.40 33.67,58.60 34.78,62.00
             37.37,69.94 47.81,71.96 55.00,72.00
             68.03,72.06 74.05,72.03 87.00,68.87
             90.66,67.98 96.88,66.41 99.76,64.03
             104.50,60.10 99.03,57.48 98.50,53.00
             98.14,50.05 100.85,43.89 102.00,41.00
             109.07,49.93 109.01,70.04 98.96,76.87 Z
           M 154.00,65.00
           C 154.00,65.00 166.00,68.00 166.00,68.00
             163.54,61.96 157.01,55.59 154.00,65.00 Z" />
</svg>
