<?xml version="1.0" encoding="UTF-8" standalone="no"?>
<!DOCTYPE svg PUBLIC "-//W3C//DTD SVG 20010904//EN"
              "http://www.w3.org/TR/2001/REC-SVG-20010904/DTD/svg10.dtd">

<svg xmlns="http://www.w3.org/2000/svg"
     width="2.27115in" height="1.36477in"
     viewBox="0 0 218 131">
  <path id="Selection"
        fill="yellow" stroke="white" stroke-width="3"
        d="M 122.00,30.00
           C 122.00,30.00 124.00,59.00 124.00,59.00
             123.94,63.49 123.79,68.10 120.00,71.00
             119.93,63.06 117.94,50.06 116.59,42.00
             114.39,28.93 111.47,25.59 119.00,14.00
             121.40,17.71 121.60,25.39 122.00,30.00 Z
           M 192.00,26.00
           C 192.00,26.00 188.00,34.00 188.00,34.00
             181.58,30.39 180.72,28.16 177.00,35.00
             174.72,34.10 172.08,33.11 170.81,30.81
             169.23,27.95 171.40,24.33 174.10,24.33
             176.00,24.33 179.36,26.93 181.00,28.00
             184.38,20.85 186.01,21.97 192.00,26.00 Z
           M 48.04,41.42
           C 58.25,33.28 73.87,41.40 69.26,52.96
             68.19,55.65 66.10,57.17 64.00,59.00
             72.92,61.36 75.04,61.01 84.00,61.00
             87.02,61.00 94.28,61.18 96.00,58.15
             97.32,55.82 94.05,53.57 93.75,50.00
             93.45,46.28 96.75,40.83 99.00,38.00
             101.41,47.16 102.12,45.73 102.00,56.00
             101.94,60.76 101.22,66.09 97.61,69.58
             91.83,75.19 76.12,74.65 69.00,71.86
             62.95,69.50 59.64,64.49 56.00,63.98
             53.32,63.61 49.11,66.24 47.01,67.79
             35.67,76.12 34.85,90.23 46.09,99.07
             54.69,105.84 68.29,107.98 79.00,108.00
             82.57,108.01 90.27,107.23 93.00,108.00
             88.49,110.57 72.31,119.34 68.00,119.70
             66.35,119.84 60.87,119.03 59.00,118.72
             39.90,115.50 29.24,101.17 33.90,82.00
             36.58,70.95 43.30,65.70 51.00,58.00
             51.00,58.00 41.00,54.00 41.00,54.00
             42.20,48.90 43.79,44.81 48.04,41.42 Z
           M 180.79,70.30
           C 176.37,73.76 167.44,74.00 162.00,74.00
             161.30,82.28 157.67,92.76 151.68,98.67
             143.41,106.82 129.56,105.08 122.00,97.00
             140.01,99.32 150.48,89.61 158.00,74.00
             154.54,73.97 148.18,73.76 145.28,71.84
             137.89,66.96 145.21,49.73 150.10,45.15
             154.59,40.94 158.98,41.10 161.52,47.02
             162.21,48.62 162.58,50.30 162.91,52.00
             163.51,55.14 163.85,57.81 164.00,61.00
             172.50,61.00 173.62,61.42 182.00,59.00
             181.00,57.04 178.29,52.68 177.91,51.00
             177.08,47.35 180.51,41.47 182.00,38.00
             187.54,45.74 188.97,63.91 180.79,70.30 Z
           M 156.86,56.43
           C 149.77,50.47 142.75,59.94 154.00,60.95
             154.00,60.95 160.00,60.95 160.00,60.95
             159.03,58.99 158.68,57.96 156.86,56.43 Z
           M 102.00,84.00
           C 102.00,84.00 98.00,92.00 98.00,92.00
             91.29,88.02 91.18,86.91 94.00,80.00
             94.00,80.00 102.00,84.00 102.00,84.00 Z" />
</svg>
